<svg xmlns="http://www.w3.org/2000/svg" height="128" width="128" xml:space="preserve" viewBox="0 0 128 128" y="0px" x="0px" version="1.1">
   <g transform="scale(0.25)">
      <path fill="#C5C5C5" d="m 251.328,196.704 c -6.24,-6.24 -16.384,-6.272 -22.656,-0.032 L 176,249.376 155.328,228.672 c -6.24,-6.24 -16.384,-6.24 -22.624,0 -6.24,6.24 -6.24,16.384 0,22.624 l 32,32 c 3.104,3.136 7.2,4.704 11.296,4.704 4.096,0 8.192,-1.568 11.328,-4.672 l 64,-64 c 6.24,-6.24 6.24,-16.384 0,-22.624 z" />
      <path fill="#C5C5C5" d="m 251.328,324.704 c -6.24,-6.24 -16.384,-6.272 -22.656,-0.032 L 176,377.376 155.328,356.704 c -6.24,-6.24 -16.384,-6.24 -22.624,0 -6.24,6.24 -6.24,16.384 0,22.624 l 32,32 c 3.104,3.104 7.2,4.672 11.296,4.672 4.096,0 8.192,-1.568 11.328,-4.672 l 64,-64 c 6.24,-6.24 6.24,-16.384 0,-22.624 z" />
      <path fill="#C5C5C5" d="m 368,224 h -64 c -8.832,0 -16,7.168 -16,16 0,8.832 7.168,16 16,16 h 64 c 8.832,0 16,-7.168 16,-16 0,-8.832 -7.168,-16 -16,-16 z" />
      <path fill="#C5C5C5" d="m 368,352 h -64 c -8.832,0 -16,7.168 -16,16 0,8.832 7.168,16 16,16 h 64 c 8.832,0 16,-7.168 16,-16 0,-8.832 -7.168,-16 -16,-16 z" />
      <path fill="#C5C5C5" d="M 416,64 H 352 V 48 c 0,-8.832 -7.168,-16 -16,-16 H 301.28 C 294.656,13.376 276.864,0 256,0 235.136,0 217.344,13.376 210.72,32 H 176 c -8.832,0 -16,7.168 -16,16 V 64 H 96 C 78.368,64 64,78.368 64,96 v 384 c 0,17.632 14.368,32 32,32 h 320 c 17.632,0 32,-14.368 32,-32 V 96 C 448,78.368 433.632,64 416,64 Z m -224,0 h 32 c 8.832,0 16,-7.168 16,-16 0,-8.832 7.168,-16 16,-16 8.832,0 16,7.168 16,16 0,8.832 7.168,16 16,16 h 32 V 96 H 192 Z M 416,480 H 96 V 96 h 64 v 16 c 0,8.832 7.168,16 16,16 h 160 c 8.832,0 16,-7.168 16,-16 V 96 h 64 z" />
   </g>
</svg>